<?xml version="1.0" encoding="UTF-8"?><svg xmlns="http://www.w3.org/2000/svg" viewBox="0 0 302.87 76.1"><defs><style>.cls-1{isolation:isolate;}.cls-1,.cls-2,.cls-3,.cls-4,.cls-5,.cls-6{fill:none;}.cls-7{fill:#fff;}.cls-2{stroke:#ea6a3f;}.cls-2,.cls-3,.cls-4,.cls-5,.cls-6{mix-blend-mode:multiply;stroke-linecap:round;stroke-miterlimit:10;stroke-width:3.59px;}.cls-3{stroke:#fbd026;}.cls-4{stroke:#d6aacd;}.cls-5{stroke:#2fb6df;}.cls-6{stroke:#b5b5b6;}</style></defs><g class="cls-1"><g id="Twister3"><path class="cls-7" d="m96.32,51.66c-.21,0-.32-.13-.32-.41v-26.23h-4.72c-.24,0-.36-.13-.36-.4v-2.02c0-.27.12-.41.36-.41h12.38c.21,0,.32.14.32.41v2.02c0,.27-.11.4-.32.4h-4.72v26.23c0,.27-.12.41-.36.41h-2.25Z"/><path class="cls-7" d="m108.24,51.66c-.21,0-.34-.12-.4-.36l-3.87-21.06c-.03-.3.04-.45.22-.45h2.38c.21,0,.33.14.36.41l2.07,12.42c.18.96.33,1.95.45,2.97.12,1.02.23,2.01.32,2.97h.13c.15-.96.3-1.93.45-2.92.15-.99.3-1.96.45-2.92l1.39-7.6-.76-4.46c-.03-.3.04-.45.22-.45h2.29c.18,0,.29.11.32.31l1.93,12.15c.15.99.28,1.98.38,2.97.1.99.2,1.97.29,2.92h.13c.15-.99.28-2,.41-3.04.12-1.04.25-2.03.4-2.99l2.07-12.33c.06-.27.16-.41.32-.41h2.38c.21,0,.3.15.27.45l-3.92,21.06c-.03.24-.17.36-.4.36h-3.02c-.21,0-.34-.09-.4-.27l-.9-5.4c-.15-.93-.29-1.9-.41-2.9s-.22-2.17-.31-3.49h-.18c-.12,1.32-.25,2.48-.38,3.49-.14,1-.28,1.99-.43,2.95l-.81,5.31c-.03.21-.15.32-.36.32h-3.11Z"/><path class="cls-7" d="m127.37,25.78c-.66,0-1.16-.16-1.48-.5-.33-.33-.5-.81-.5-1.44v-.4c0-.63.16-1.12.5-1.46.33-.34.82-.52,1.48-.52s1.15.17,1.46.52c.31.35.47.83.47,1.46v.4c0,.63-.16,1.11-.47,1.44-.32.33-.8.5-1.46.5Zm-1.17,25.87c-.21,0-.31-.13-.31-.41v-21.06c0-.27.1-.41.31-.41h2.29c.21,0,.32.14.32.41v21.06c0,.27-.11.41-.32.41h-2.29Z"/><path class="cls-7" d="m137.49,51.93c-1.83,0-3.17-.57-4-1.71-.84-1.14-1.19-2.8-1.04-4.99,0-.24.1-.36.31-.36h2.29c.18,0,.27.11.27.31-.03,1.44.11,2.46.43,3.06.31.6.92.9,1.82.9,1.53,0,2.29-.99,2.29-2.97,0-.78-.13-1.43-.38-1.96-.25-.52-.68-1.03-1.28-1.51l-2.97-2.34c-.93-.72-1.61-1.54-2.03-2.45s-.63-2.02-.63-3.31c0-1.62.43-2.87,1.28-3.76.86-.88,2.09-1.33,3.71-1.33s2.95.51,3.8,1.53c.85,1.02,1.19,2.42,1.01,4.19,0,.24-.11.36-.31.36h-2.25c-.06,0-.13-.01-.2-.04-.08-.03-.1-.16-.07-.41.06-.9-.08-1.6-.4-2.11-.33-.51-.89-.77-1.67-.77-1.38,0-2.07.78-2.07,2.34,0,.75.14,1.38.43,1.89.28.51.71,1.02,1.28,1.53l2.92,2.34c1.02.84,1.72,1.67,2.09,2.47.38.81.56,1.88.56,3.2,0,1.92-.44,3.38-1.33,4.39-.89,1-2.18,1.51-3.89,1.51Z"/><path class="cls-7" d="m151.4,51.93c-1.53,0-2.62-.46-3.29-1.39-.66-.93-.99-2.49-.99-4.68v-13.27h-1.93c-.24,0-.36-.12-.36-.36v-2.02c0-.27.12-.41.36-.41h2.03l.36-5.49c.03-.24.15-.36.36-.36h1.84c.18,0,.27.12.27.36v5.49h4.05c.24,0,.36.14.36.41v2.02c0,.24-.12.36-.36.36h-4.05v13.19c0,1.23.15,2.1.45,2.61.3.51.81.77,1.53.77.39,0,.77-.05,1.12-.14.36-.09.69-.19.99-.31.24-.09.36-.01.36.22v2.07c0,.27-.11.43-.32.5-.39.12-.83.22-1.3.31-.48.09-.98.13-1.49.13Z"/><path class="cls-7" d="m162.78,51.93c-2.01,0-3.5-.63-4.46-1.89-.96-1.26-1.44-3.21-1.44-5.85v-7.51c0-2.49.48-4.3,1.44-5.45.96-1.14,2.38-1.71,4.27-1.71s3.28.59,4.25,1.78c.97,1.19,1.46,2.95,1.46,5.29v4.45c0,.24-.11.36-.31.36h-8.19v2.75c0,1.74.23,3,.7,3.78.46.78,1.22,1.17,2.27,1.17.9,0,1.56-.25,1.98-.74.42-.5.6-1.24.54-2.23-.06-.3.03-.45.27-.45h2.16c.21,0,.32.12.32.36.06,1.89-.37,3.35-1.28,4.37-.92,1.02-2.24,1.53-3.98,1.53Zm-2.97-13.27h5.58v-2.02c0-1.53-.22-2.63-.65-3.31-.44-.68-1.15-1.01-2.14-1.01s-1.67.35-2.12,1.04c-.45.69-.67,1.79-.67,3.29v2.02Z"/><path class="cls-7" d="m172.28,51.66c-.21,0-.31-.13-.31-.41v-16.06c0-1.26,0-2.29-.02-3.08-.02-.79-.05-1.4-.11-1.82-.03-.33.06-.5.27-.5h2.07c.15,0,.24.14.27.41.06.6.12,1.33.18,2.18s.09,1.51.09,1.96l.18.27v16.65c0,.27-.11.41-.32.41h-2.29Zm2.34-15.84l-.18-2.83c.36-.57.77-1.12,1.24-1.64.46-.52.97-.96,1.53-1.31.55-.34,1.15-.52,1.78-.52.27,0,.5.02.67.04.12.03.2.09.25.18s.07.21.07.36c0,.51,0,.99-.02,1.44-.02.45-.05.93-.11,1.44-.03.21-.14.3-.32.27-.15-.06-.31-.1-.47-.11-.17-.01-.35-.02-.56-.02-.63,0-1.3.24-2.02.72-.72.48-1.34,1.14-1.85,1.98Z"/><path class="cls-7" d="m187.98,51.93c-2.07,0-3.54-.68-4.41-2.05s-1.3-3.2-1.3-5.51c0-.27.13-.41.4-.41h2.03c.27,0,.41.14.41.41,0,1.56.22,2.74.67,3.53.45.8,1.24,1.19,2.38,1.19,1.08,0,1.9-.4,2.45-1.19.56-.79.83-2.02.83-3.67v-1.4c0-1.59-.27-2.81-.81-3.67-.54-.86-1.56-1.28-3.06-1.28h-1.44c-.27,0-.41-.12-.41-.36v-1.98c0-.27.13-.41.41-.41h1.48c1.08,0,1.93-.44,2.54-1.33.61-.88.92-2.15.92-3.8v-1.31c0-1.47-.25-2.5-.74-3.08-.5-.58-1.22-.88-2.18-.88-1.11,0-1.9.39-2.36,1.17-.47.78-.68,1.95-.65,3.51,0,.27-.13.4-.41.4h-2.03c-.27,0-.4-.13-.4-.4,0-2.49.5-4.37,1.48-5.62.99-1.26,2.49-1.89,4.5-1.89,1.89,0,3.31.57,4.28,1.71.96,1.14,1.44,2.97,1.44,5.49,0,1.98-.28,3.55-.83,4.7-.56,1.15-1.27,1.97-2.14,2.45v.09c1.05.48,1.88,1.28,2.48,2.38.6,1.11.9,2.73.9,4.86,0,2.79-.56,4.88-1.69,6.25s-2.71,2.07-4.75,2.07Z"/></g><g id="Circle"><circle class="cls-7" cx="38" cy="38" r="33.8"/></g><g id="Logo"><line class="cls-5" x1="48.8" y1="10" x2="57.1" y2="59.7"/><line class="cls-5" x1="28.2" y1="21" x2="57.1" y2="59.7"/><line class="cls-4" x1="9.1" y1="40.5" x2="28.2" y2="21"/><line class="cls-6" x1="9.1" y1="40.5" x2="57.1" y2="59.7"/><line class="cls-5" x1="57.1" y1="59.7" x2="62.4" y2="44.9"/><line class="cls-2" x1="28.2" y1="21" x2="62.4" y2="44.9"/><line class="cls-6" x1="9.1" y1="40.5" x2="62.4" y2="44.9"/><line class="cls-3" x1="48.8" y1="10" x2="62.4" y2="44.9"/></g></g></svg>