<?xml version="1.0" encoding="utf-8"?>
<!-- Generator: Adobe Illustrator 26.0.2, SVG Export Plug-In . SVG Version: 6.00 Build 0)  -->
<svg version="1.1" id="Layer_1" xmlns="http://www.w3.org/2000/svg" xmlns:xlink="http://www.w3.org/1999/xlink" x="0px" y="0px"
	 viewBox="0 0 300 75.1" style="enable-background:new 0 0 300 75.1;" xml:space="preserve">
<style type="text/css">
	.st0{fill:#FFFFFF;}
	.st1{fill:none;stroke:#2FB6DF;stroke-width:3.59;stroke-linecap:round;stroke-miterlimit:10;}
	.st2{fill:none;stroke:#D6AACD;stroke-width:3.59;stroke-linecap:round;stroke-miterlimit:10;}
	.st3{fill:none;stroke:#B5B5B6;stroke-width:3.59;stroke-linecap:round;stroke-miterlimit:10;}
	.st4{fill:none;stroke:#EA6A3F;stroke-width:3.59;stroke-linecap:round;stroke-miterlimit:10;}
	.st5{fill:none;stroke:#FBD026;stroke-width:3.59;stroke-linecap:round;stroke-miterlimit:10;}
	.st6{fill:#2FB6DF;}
	.st7{fill:none;stroke:#D15527;stroke-width:3.59;stroke-linecap:round;stroke-miterlimit:10;}
	.st8{fill:none;}
</style>
<g>
	<g id="Layer_1_1_">
		<circle class="st0" cx="37.5" cy="37.5" r="33.8"/>
		<line class="st1" x1="48.3" y1="9.5" x2="56.6" y2="59.2"/>
		<line class="st1" x1="27.7" y1="20.5" x2="56.6" y2="59.2"/>
		<line class="st2" x1="8.6" y1="40" x2="27.7" y2="20.5"/>
		<line class="st3" x1="8.6" y1="40" x2="56.6" y2="59.2"/>
		<line class="st1" x1="56.6" y1="59.2" x2="61.9" y2="44.4"/>
		<line class="st4" x1="27.7" y1="20.5" x2="61.9" y2="44.4"/>
		<line class="st3" x1="8.6" y1="40" x2="61.9" y2="44.4"/>
		<line class="st5" x1="48.3" y1="9.5" x2="61.9" y2="44.4"/>
		<path class="st6" d="M40.5,28.5"/>
		<path class="st7" d="M41.9,29.7"/>
		<path class="st6" d="M28.1,30.2"/>
		<path class="st6" d="M28.1,30.2"/>
		<circle class="st8" cx="37.5" cy="37.5" r="37.5"/>
	</g>
</g>
<g>
	<path class="st0" d="M103.6,27.7c1,0,1.8,0.8,1.8,1.8c0,1-0.8,1.8-1.8,1.8h-3.1v20.1c0,1-0.8,1.8-1.8,1.8c-1,0-1.8-0.8-1.8-1.8
		V31.4h-3.1c-1,0-1.8-0.8-1.8-1.8c0-1,0.8-1.8,1.8-1.8H103.6z"/>
	<path class="st0" d="M104.2,36.7c-0.2-0.9,0.3-1.9,1.2-2.1c0.9-0.2,1.9,0.3,2.1,1.3c0,0,1.1,4.4,2.1,8.6c1.1-4.2,2.2-8.6,2.2-8.6
		c0.2-0.8,0.9-1.3,1.6-1.3c0.8,0,1.5,0.5,1.7,1.3c0,0,1.1,4.4,2.1,8.6c1.1-4.2,2.2-8.6,2.2-8.6c0.2-0.9,1.1-1.5,2.1-1.3
		c0.9,0.2,1.5,1.2,1.3,2.1l-3.8,15.2c-0.2,0.8-0.9,1.3-1.7,1.3c-0.8,0-1.4-0.5-1.6-1.3c0,0-1.1-4.4-2.2-8.5c-1,4.2-2.1,8.5-2.1,8.5
		c-0.2,0.8-0.9,1.3-1.7,1.3c-0.8,0-1.4-0.5-1.6-1.3L104.2,36.7z"/>
	<path class="st0" d="M125.4,30.5c0-1.1,0.9-2.1,2.1-2.1c1.2,0,2.1,1,2.1,2.1s-0.9,2.1-2.1,2.1C126.4,32.6,125.4,31.7,125.4,30.5z
		 M127.5,53.1c-0.9,0-1.7-0.8-1.7-1.7V36.2c0-1,0.8-1.7,1.7-1.7c1,0,1.7,0.8,1.7,1.7v15.2C129.2,52.4,128.5,53.1,127.5,53.1z"/>
	<path class="st0" d="M139.2,47.8c0-0.6-0.3-1.1-0.8-1.4l-3.6-2.5c-1.3-0.9-2.1-2.3-2.2-3.9c-0.1-1.6,0.5-3.1,1.7-4.1
		c1.1-1,2.7-1.5,4.3-1.3c1.5,0.2,2.8,1.1,3.6,2.5c0.5,0.8,0.2,1.9-0.6,2.3c-0.8,0.5-1.9,0.2-2.3-0.6c-0.3-0.5-0.7-0.8-1.2-0.8
		c-0.5-0.1-1,0.1-1.4,0.4c-0.4,0.3-0.6,0.8-0.6,1.4c0,0.5,0.3,1,0.7,1.3l3.5,2.5c1.3,1,2.1,2.4,2.2,4c0.1,1.6-0.5,3.2-1.7,4.3
		c-1.2,1.1-2.8,1.6-4.4,1.3c-1.6-0.2-3-1.2-3.8-2.6c-0.5-0.8-0.2-1.9,0.6-2.3c0.8-0.5,1.9-0.2,2.4,0.6c0.3,0.5,0.8,0.8,1.3,0.9
		c0.6,0.1,1.1-0.1,1.5-0.5C139,48.9,139.2,48.3,139.2,47.8z"/>
	<path class="st0" d="M144.2,36.4c0-1,0.8-1.7,1.7-1.7h1.3v-6c0-1,0.8-1.7,1.7-1.7c1,0,1.7,0.8,1.7,1.7v6h2.1c1,0,1.7,0.8,1.7,1.7
		c0,0.9-0.8,1.7-1.7,1.7h-2.1v9.5c0,1.1,1,2.1,2.1,2.1c1,0,1.7,0.8,1.7,1.7c0,0.9-0.8,1.7-1.7,1.7c-3,0-5.5-2.5-5.5-5.5v-9.5h-1.3
		C145,38.1,144.2,37.3,144.2,36.4z"/>
	<path class="st0" d="M156.7,47.6V40c0-3,2.5-5.5,5.5-5.5c3,0,5.5,2.5,5.5,5.5v3.8c0,1-0.8,1.7-1.7,1.7h-5.9v2.1
		c0,0.8,0.5,1.6,1.3,1.9c0.8,0.3,1.7,0.2,2.3-0.5c0.6-0.7,1.7-0.7,2.4,0c0.6,0.7,0.6,1.7,0,2.4c-1.6,1.6-4,2.1-6,1.2
		C158,51.9,156.7,49.9,156.7,47.6z M160.1,40v2.1c1.3,0,3,0,4.2,0c0-1,0-2.1,0-2.1c0-1.1-0.9-2.1-2.1-2.1
		C161.1,37.9,160.1,38.9,160.1,40z"/>
	<path class="st0" d="M171.1,51.4v-15c0-1,0.8-1.7,1.7-1.7h3.8c1,0,1.9,0.3,2.7,0.7c0.8,0.5,1.1,1.5,0.6,2.4
		c-0.5,0.8-1.5,1.1-2.4,0.6c-0.3-0.2-0.6-0.3-1-0.3h-2.1v13.3c0,0.9-0.8,1.7-1.7,1.7C171.9,53.1,171.1,52.4,171.1,51.4z"/>
	<path class="st0" d="M190.1,46.9v-2.3c0-1.5-1.2-2.7-2.7-2.7c-1,0-1.8-0.8-1.8-1.8c0-1,0.8-1.8,1.8-1.8c1.5,0,2.7-1.2,2.7-2.7V34
		c0-1.2-0.8-2.3-2-2.6c-1.2-0.3-2.5,0.2-3.1,1.3c-0.5,0.9-1.6,1.2-2.5,0.7c-0.9-0.5-1.2-1.6-0.7-2.5c1.4-2.5,4.4-3.7,7.2-3
		c2.8,0.7,4.7,3.3,4.7,6.2v1.5c0,1.8-0.7,3.4-1.9,4.6c1.2,1.2,1.9,2.8,1.9,4.6v2.3c0,2.9-1.9,5.4-4.7,6.2c-2.8,0.8-5.7-0.5-7.2-3
		c-0.5-0.9-0.2-2,0.7-2.5c0.9-0.5,2-0.2,2.5,0.7c0.6,1.1,1.9,1.6,3.1,1.3C189.2,49.2,190.1,48.1,190.1,46.9z"/>
</g>
</svg>
