<?xml version="1.0" encoding="utf-8"?>
<!-- Generator: Adobe Illustrator 25.2.1, SVG Export Plug-In . SVG Version: 6.00 Build 0)  -->
<!DOCTYPE svg PUBLIC "-//W3C//DTD SVG 1.1//EN" "http://www.w3.org/Graphics/SVG/1.1/DTD/svg11.dtd" [
	<!ENTITY ns_extend "http://ns.adobe.com/Extensibility/1.0/">
	<!ENTITY ns_ai "http://ns.adobe.com/AdobeIllustrator/10.0/">
	<!ENTITY ns_graphs "http://ns.adobe.com/Graphs/1.0/">
	<!ENTITY ns_vars "http://ns.adobe.com/Variables/1.0/">
	<!ENTITY ns_imrep "http://ns.adobe.com/ImageReplacement/1.0/">
	<!ENTITY ns_sfw "http://ns.adobe.com/SaveForWeb/1.0/">
	<!ENTITY ns_custom "http://ns.adobe.com/GenericCustomNamespace/1.0/">
	<!ENTITY ns_adobe_xpath "http://ns.adobe.com/XPath/1.0/">
]>
<svg version="1.1" xmlns:x="&ns_extend;" xmlns:i="&ns_ai;" xmlns:graph="&ns_graphs;"
	 xmlns="http://www.w3.org/2000/svg" xmlns:xlink="http://www.w3.org/1999/xlink" x="0px" y="0px" viewBox="0 0 100 100"
	 style="enable-background:new 0 0 100 100;" xml:space="preserve">
<style type="text/css">
	.st0{fill:#B5B6B6;stroke:#000000;stroke-miterlimit:10;}
	.st1{fill:#519241;stroke:#000000;stroke-miterlimit:10;}
	.st2{fill:#F4D151;stroke:#000000;stroke-miterlimit:10;}
</style>
<metadata>
	<sfw  xmlns="&ns_sfw;">
		<slices></slices>
		<sliceSourceBounds  bottomLeftOrigin="true" height="59.5" width="71.4" x="13.7" y="-415.5"></sliceSourceBounds>
	</sfw>
</metadata>
<g id="Layer_1">
</g>
<g id="Figs">
	
		<ellipse transform="matrix(0.9999 -1.484932e-02 1.484932e-02 0.9999 -1.1652 0.7508)" class="st0" cx="50" cy="78.8" rx="16.7" ry="2.1"/>
	<path class="st0" d="M66.7,78.6l-33.5,0.5c0,0-25.5-31.3-17.5-32.7c21.4-3.7,48-5.1,67.4-1.1C90.8,46.8,66.7,78.6,66.7,78.6z"/>
	
		<ellipse transform="matrix(0.9999 -1.484932e-02 1.484932e-02 0.9999 -0.6224 0.7387)" class="st0" cx="49.4" cy="42.3" rx="32.8" ry="7"/>
	
		<ellipse transform="matrix(0.9999 -1.484932e-02 1.484932e-02 0.9999 -0.5356 0.7363)" class="st1" cx="49.3" cy="36.4" rx="32.8" ry="7"/>
	<path class="st2" d="M68.8,35.6H30.4c-0.7,0-1.3-0.6-1.3-1.3V23.9c0-0.7,0.6-1.3,1.3-1.3h38.4c0.7,0,1.3,0.6,1.3,1.3v10.4
		C70.2,35,69.6,35.6,68.8,35.6z"/>
</g>
</svg>
